HIERARCHY
ROOT Hips
{
	OFFSET 0.00 0.00 0.00
	CHANNELS 6 Xposition Yposition Zposition Yrotation Xrotation Zrotation
	JOINT LHipJoint
	{
		OFFSET	0.0000	0.0000	0.0000
		CHANNELS 3 Yrotation Xrotation Zrotation
		JOINT LeftUpLeg
		{
			OFFSET	1.0138	-0.0809	-0.0827
			CHANNELS 3 Yrotation Xrotation Zrotation
			JOINT LeftLeg
			{
				OFFSET	0.4110	-3.9095	0.3245
				CHANNELS 3 Yrotation Xrotation Zrotation
				JOINT LeftFoot
				{
					OFFSET	0.3810	-4.0555	-0.1470
					CHANNELS 3 Yrotation Xrotation Zrotation
					JOINT LeftToeBase
					{
						OFFSET	0.1396	-0.4462	1.3079
						CHANNELS 3 Yrotation Xrotation Zrotation
						End Site
						{
							OFFSET 0.0161 -0.0248 0.1809
						}
					}
				}
			}
		}
	}
	JOINT LowerBack
	{
		OFFSET	0.0000	0.7977	-0.3873
		CHANNELS 3 Yrotation Xrotation Zrotation
		JOINT Spine
		{
			OFFSET	0.0000	1.4131	0.1715
			CHANNELS 3 Yrotation Xrotation Zrotation
			JOINT Spine1
			{
				OFFSET	0.0000	1.4392	-0.1032
				CHANNELS 3 Yrotation Xrotation Zrotation
				JOINT LeftShoulder
				{
					OFFSET	0.2274	1.0382	0.4032
					CHANNELS 3 Yrotation Xrotation Zrotation
					JOINT LeftArm
					{
						OFFSET	1.4730	-0.2267	-0.0231
						CHANNELS 3 Yrotation Xrotation Zrotation
						JOINT LeftForeArm
						{
							OFFSET	1.6131	-1.8059	0.0081
							CHANNELS 3 Yrotation Xrotation Zrotation
							JOINT LeftHand
							{
								OFFSET	1.2197	-1.2423	1.6317
								CHANNELS 3 Yrotation Xrotation Zrotation
								JOINT LThumb
								{
									OFFSET	0.0109	-0.0753	0.4387
									CHANNELS 3 Yrotation Xrotation Zrotation
									End Site
									{
										OFFSET -0.2090 -0.0868 0.2097
									}
								}
								JOINT LeftFingerBase
								{
									OFFSET	0.1071	-0.1567	0.2607
									CHANNELS 3 Yrotation Xrotation Zrotation
									JOINT LeftHandFinger1
									{
										OFFSET	0.1706	-0.2492	0.6830
										CHANNELS 3 Yrotation Xrotation Zrotation
										End Site
										{
											OFFSET 0.0335 -0.1507 0.2071
										}
									}
								}
							}
						}
					}
				}
				JOINT Neck
				{
					OFFSET	0.0000	1.7498	0.2381
					CHANNELS 3 Yrotation Xrotation Zrotation
					JOINT Neck1
					{
						OFFSET	0.0000	0.5043	0.1959
						CHANNELS 3 Yrotation Xrotation Zrotation
						JOINT Head
						{
							OFFSET	0.0000	0.5044	0.1959
							CHANNELS 3 Yrotation Xrotation Zrotation
							End Site
							{
								OFFSET 0.0000 1.4798 -0.0693
							}
						}
					}
				}
				JOINT RightShoulder
				{
					OFFSET	-0.2274	1.0382	0.4032
					CHANNELS 3 Yrotation Xrotation Zrotation
					JOINT RightArm
					{
						OFFSET	-1.4730	-0.2267	-0.0231
						CHANNELS 3 Yrotation Xrotation Zrotation
						JOINT RightForeArm
						{
							OFFSET	-1.6131	-1.8059	0.0081
							CHANNELS 3 Yrotation Xrotation Zrotation
							JOINT RightHand
							{
								OFFSET	-1.2197	-1.2423	1.6317
								CHANNELS 3 Yrotation Xrotation Zrotation
								JOINT RThumb
								{
									OFFSET	-0.0109	-0.0753	0.4387
									CHANNELS 3 Yrotation Xrotation Zrotation
									End Site
									{
										OFFSET 0.2090 -0.0868 0.2097
									}
								}
								JOINT RightFingerBase
								{
									OFFSET	-0.1071	-0.1567	0.2607
									CHANNELS 3 Yrotation Xrotation Zrotation
									JOINT RightHandFinger1
									{
										OFFSET	-0.1706	-0.2492	0.6830
										CHANNELS 3 Yrotation Xrotation Zrotation
										End Site
										{
											OFFSET -0.0335 -0.1507 0.2071
										}
									}
								}
							}
						}
					}
				}
			}
		}
	}
	JOINT RHipJoint
	{
		OFFSET	0.0000	0.0000	0.0000
		CHANNELS 3 Yrotation Xrotation Zrotation
		JOINT RightUpLeg
		{
			OFFSET	-1.0138	-0.0809	-0.0827
			CHANNELS 3 Yrotation Xrotation Zrotation
			JOINT RightLeg
			{
				OFFSET	-0.4110	-3.9095	0.3245
				CHANNELS 3 Yrotation Xrotation Zrotation
				JOINT RightFoot
				{
					OFFSET	-0.3810	-4.0555	-0.1470
					CHANNELS 3 Yrotation Xrotation Zrotation
					JOINT RightToeBase
					{
						OFFSET	-0.1396	-0.4462	1.3079
						CHANNELS 3 Yrotation Xrotation Zrotation
						End Site
						{
							OFFSET -0.0161 -0.0248 0.1809
						}
					}
				}
			}
		}
	}
}
MOTION
Frames: 15
Frame Time: 0.0333333
-0.0474 8.5306 -0.3428 2.5218 28.9608 3.5537 0.0000 -0.0000 0.0000 4.7290 -31.2034 -13.3873 10.5677 37.7947 5.4286 -3.5277 -34.7379 5.5734 0.0000 -1.0765 -0.0000 0.0000 -0.0000 0.0000 0.5256 6.7201 -2.2939 1.2073 13.4390 -2.9688 15.4550 -0.2781 1.1448 -87.1258 -25.5461 32.0354 -32.2290 11.4697 6.9273 34.8857 -13.6678 76.7151 17.8944 -4.7300 5.7573 -13.6740 26.3193 -16.8479 -1.7132 -9.3714 1.2422 -0.9909 -9.5475 8.8348 -0.9909 -9.5474 8.8349 10.6663 1.5497 -5.2522 -15.7835 -1.2563 -8.6006 31.4890 -18.8080 -17.3037 52.0979 6.4980 -11.5303 -20.6697 -46.8208 -76.7558 -26.3055 -6.4659 4.7860 4.1242 28.7876 13.3748 15.7275 4.0746 9.9445 0.0000 -0.0000 0.0000 -4.6903 -46.3037 1.1076 -69.2775 76.7176 -66.8533 -0.0595 -17.0914 2.5102 0.0000 -2.3853 0.0000 
-0.0583 8.6311 -0.2809 6.1283 28.6556 4.8659 0.0000 -0.0000 0.0000 4.5404 -27.4244 -13.6224 5.7761 33.0814 3.0460 -3.4104 -32.6190 5.9912 -0.0000 -1.3014 0.0000 0.0000 -0.0000 0.0000 0.3440 6.9961 -2.0795 1.1672 13.9876 -2.2451 14.3316 -0.2041 0.6376 -86.5485 -24.1734 31.8739 -34.9436 10.7000 7.4541 36.4587 -14.5442 76.3193 17.8706 -4.7568 5.7133 -13.5800 26.5095 -16.8962 -1.3209 -9.8532 1.5430 -0.9690 -8.6367 7.8784 -0.9690 -8.6366 7.8784 8.5586 0.3864 -2.2394 -15.9259 -1.2519 -8.3250 26.2687 -17.9073 -15.7199 56.1900 5.6915 -12.6651 -21.7468 -46.5965 -77.4255 -26.3357 -6.2400 4.7256 4.2605 29.2346 13.7320 15.7340 4.0797 9.9499 0.0000 -0.0000 0.0000 -4.6666 -53.7532 -0.4151 -61.4190 76.0091 -57.9731 -0.7582 -19.0592 2.6844 0.0000 -4.0927 -0.0000 
-0.0734 8.7261 -0.1975 9.3946 28.4270 5.7508 0.0000 -0.0000 0.0000 4.4141 -23.3465 -13.4358 1.7774 27.4411 1.8897 -2.9539 -30.0958 5.4525 0.0000 -1.7080 0.0000 0.0000 -0.0000 0.0000 0.2124 7.1270 -1.7537 1.2431 14.2460 -1.3969 13.5225 -0.1342 0.0396 -86.4958 -23.9288 30.8456 -37.1236 10.1003 7.9026 36.9153 -14.3984 77.2450 17.8765 -4.7489 5.7182 -13.0993 26.4077 -16.5101 -1.0569 -10.1800 1.7447 -1.0219 -7.7028 7.3983 -1.0219 -7.7030 7.3983 6.8723 -0.6729 -0.0081 -15.1931 -1.1176 -7.5534 20.8241 -17.4539 -14.4039 60.1345 4.9939 -13.8068 -21.9668 -45.5981 -78.8585 -26.2908 -6.0586 4.7288 4.4321 29.6408 14.0690 15.7417 4.0858 9.9564 0.0000 -0.0000 0.0000 -3.4966 -59.2665 -3.0744 -43.6070 72.9765 -38.8814 -0.8723 -20.0231 2.5924 0.0000 -5.8330 -0.0000 
-0.0895 8.8051 -0.1001 12.0175 28.2771 6.1107 0.0000 -0.0000 0.0000 3.9932 -19.2821 -12.9147 -1.5826 21.6514 2.1689 -2.3076 -27.6160 4.0334 0.0000 -1.5836 -0.0000 0.0000 -0.0000 0.0000 0.1743 7.1320 -1.3643 1.4403 14.2513 -0.5558 13.0647 -0.0832 -0.5569 -87.0613 -24.1582 29.4534 -38.4484 9.7442 8.1859 36.6139 -13.7611 78.6250 17.8934 -4.7282 5.7428 -12.6310 26.2521 -16.0994 -1.0688 -10.1652 1.7356 -1.2260 -6.7705 7.6844 -1.2260 -6.7708 7.6844 5.7977 -1.5612 1.0402 -13.5301 -0.8778 -6.3806 15.1362 -17.4461 -13.3520 63.6744 4.4371 -14.8668 -21.6770 -44.1703 -80.3686 -26.2254 -5.9797 4.7645 4.5508 29.8559 14.2511 15.7402 4.0847 9.9551 0.0000 -0.0000 0.0000 -0.8209 -62.0203 -6.4572 -28.0104 66.1698 -22.2911 -1.4689 -20.1790 2.6931 -0.0000 -7.0170 0.0000 
-0.1082 8.8437 -0.0153 14.3811 28.0228 6.1614 0.0000 -0.0000 0.0000 3.7194 -16.9288 -12.0572 -3.7176 19.2884 2.7773 -2.3885 -27.5706 4.1024 -0.0000 0.3993 0.0000 0.0000 -0.0000 0.0000 0.1619 7.0793 -0.9235 1.4855 14.1436 0.1127 12.7548 -0.0580 -0.9866 -87.9891 -23.9010 28.5691 -38.9331 9.6156 8.2915 36.2284 -13.4730 79.3430 17.8994 -4.7175 5.7551 -12.4482 26.1959 -15.9308 -1.2360 -9.9580 1.6079 -1.5262 -5.8959 8.4521 -1.5262 -5.8959 8.4521 5.1081 -2.2501 1.4435 -11.3514 -0.6425 -5.2705 9.0809 -17.4517 -12.3237 66.8695 3.9922 -15.8490 -21.5696 -42.9393 -81.1437 -26.2094 -5.9999 4.7790 4.5743 29.9216 14.2835 15.7297 4.0763 9.9463 0.0000 -0.0000 0.0000 1.9176 -62.3041 -9.4193 -19.9424 57.2080 -13.9825 -2.9076 -19.7635 2.7637 0.0000 -7.7623 0.0000 
-0.1350 8.8415 0.0563 17.1247 27.6856 6.7043 0.0000 -0.0000 0.0000 3.8437 -14.5650 -11.2251 -5.6841 16.8180 2.9387 -3.4997 -27.2764 4.1781 0.0000 0.3504 -0.0000 0.0000 -0.0000 0.0000 0.0173 6.9501 -0.6771 1.1680 13.8901 0.3769 12.3588 -0.0432 -1.2545 -89.0839 -22.9642 28.2054 -38.8029 9.6501 8.2631 35.8918 -13.6616 79.2859 17.9059 -4.7050 5.7719 -12.5361 26.2406 -15.9964 -1.3519 -9.8149 1.5193 -1.8329 -5.0424 9.1891 -1.8329 -5.0424 9.1891 4.2767 -2.9206 2.0672 -9.6301 -0.4940 -4.6065 3.1796 -16.9293 -11.0353 69.8668 3.6258 -16.7896 -21.9317 -42.1119 -81.3268 -26.2561 -6.0247 4.7465 4.5603 30.0640 14.3349 15.7251 4.0726 9.9424 0.0000 -0.0000 0.0000 3.5219 -61.3962 -11.5492 -16.4186 48.9241 -10.5513 -4.8256 -19.3007 3.1154 -0.0000 -7.8970 0.0000 
-0.1734 8.8103 0.1128 20.5877 27.3708 8.2976 0.0000 -0.0000 0.0000 4.0416 -12.4959 -10.9263 -7.3753 14.4215 2.8857 -5.4653 -26.5037 3.8294 0.0000 0.3450 0.0000 0.0000 -0.0000 0.0000 -0.1581 6.6412 -0.7189 0.7694 13.2790 0.1926 11.6968 -0.0103 -1.5076 -90.2960 -21.8812 27.8052 -38.4082 9.7549 8.1772 35.3855 -13.8889 78.9231 17.9414 -4.6639 5.8336 -12.7579 26.3681 -16.2082 -1.3686 -9.7944 1.5065 -2.1233 -4.2634 9.3404 -2.1233 -4.2634 9.3404 2.5702 -3.5317 3.6527 -9.3469 -0.4605 -4.4517 -1.6004 -15.8224 -9.3957 72.5904 3.3361 -17.6583 -22.4512 -41.3541 -81.6689 -26.3314 -5.9911 4.6832 4.6019 30.4191 14.5367 15.7260 4.0733 9.9432 0.0000 -0.0000 0.0000 3.9506 -60.7075 -13.1949 -15.8758 44.7039 -10.0480 -4.1174 -18.1650 3.9244 -0.0000 -6.5704 -0.0000 
-0.2159 8.7685 0.1596 24.0368 27.4442 10.2974 0.0000 -0.0000 0.0000 4.3319 -11.2844 -10.9835 -8.6283 12.6192 2.7564 -7.7132 -25.9224 3.4495 -0.0000 0.5035 0.0000 0.0000 -0.0000 0.0000 -0.1979 6.2101 -0.8377 0.6903 12.4184 -0.0199 10.7819 0.0410 -1.7567 -91.3814 -21.2586 27.1663 -38.2567 9.7953 8.1444 34.7873 -13.8463 78.6952 18.0107 -4.5928 5.9449 -12.8878 26.4906 -16.3731 -1.3352 -9.8356 1.5321 -2.3869 -4.0157 8.7629 -2.3868 -4.0156 8.7630 0.1316 -3.5118 6.0952 -10.4033 -0.5326 -4.5355 -4.8297 -14.8695 -7.4919 74.7964 3.1322 -18.3704 -22.6527 -40.2858 -82.5280 -26.3935 -5.9511 4.6294 4.6800 30.8314 14.7843 15.7212 4.0695 9.9391 0.0000 -0.0000 0.0000 4.5866 -61.4627 -15.2132 -17.1927 44.6266 -11.1964 -2.6664 -14.7997 4.3304 0.0000 -6.3258 -0.0000 
-0.2494 8.7489 0.1835 26.7555 27.6854 11.7028 0.0000 -0.0000 0.0000 4.9385 -10.4424 -10.7927 -9.4156 10.9462 2.5922 -10.0487 -25.2960 3.0706 -0.0000 0.5998 -0.0000 0.0000 -0.0000 0.0000 -0.1959 5.8637 -0.8258 0.6836 11.7257 -0.0258 9.8512 0.0884 -1.8835 -92.0840 -21.2046 26.6000 -38.5647 9.7133 8.2112 34.3948 -13.5934 78.7450 18.1011 -4.5062 6.0847 -12.8516 26.5508 -16.4029 -1.2282 -9.9677 1.6139 -2.6218 -4.3862 8.1592 -2.6218 -4.3864 8.1592 -1.8096 -2.9142 8.0398 -11.8334 -0.6446 -4.6096 -6.8832 -14.6428 -5.5332 76.3622 3.0043 -18.8799 -22.4737 -38.9933 -83.5446 -26.4437 -5.9636 4.5933 4.6878 31.0978 14.9023 15.7166 4.0659 9.9352 0.0000 -0.0000 0.0000 4.3688 -61.9589 -16.1794 -17.9322 43.2962 -11.4779 -2.0414 -11.7265 4.2793 0.0000 -5.3476 0.0000 
-0.2798 8.7062 0.2016 29.0274 27.7216 12.7445 0.0000 -0.0000 0.0000 5.5611 -9.6882 -10.3920 -9.5770 9.8485 2.5189 -12.4408 -25.0085 2.9057 0.0000 0.4783 -0.0000 0.0000 -0.0000 0.0000 -0.4023 5.6491 -0.8254 0.2935 11.3020 -0.0170 9.2073 0.1161 -1.8533 -92.4441 -21.3401 26.4068 -39.0601 9.5821 8.3194 34.3302 -13.3139 78.8013 18.1893 -4.4256 6.2179 -12.7459 26.5773 -16.3699 -1.0026 -10.2474 1.7861 -2.8284 -4.6865 8.0451 -2.8284 -4.6865 8.0451 -2.7658 -2.4821 8.7308 -12.7827 -0.7175 -4.5993 -8.3616 -14.8699 -3.9379 77.3983 2.9273 -19.2187 -22.2123 -37.9071 -84.1147 -26.5123 -6.0151 4.5486 4.6208 31.2093 14.8890 15.7199 4.0685 9.9380 0.0000 -0.0000 0.0000 4.5821 -62.6507 -17.3130 -18.5238 43.0694 -11.6363 -2.1476 -11.6197 4.3643 -0.0000 -4.9206 0.0000 
-0.3105 8.6496 0.2071 31.0120 27.7074 13.6817 0.0000 -0.0000 0.0000 6.0034 -9.3590 -10.0614 -9.6496 9.6943 2.4544 -14.5458 -25.2920 2.8564 -0.0000 0.3606 -0.0000 0.0000 -0.0000 0.0000 -0.6744 5.4348 -0.8479 -0.2282 10.8811 -0.0587 8.8727 0.1256 -1.7489 -92.7801 -21.2659 26.5886 -39.2508 9.5318 8.3613 34.3582 -13.1618 78.4491 18.2384 -4.3809 6.2923 -12.6422 26.5693 -16.3114 -0.7619 -10.5474 1.9692 -2.9605 -4.5145 7.9058 -2.9605 -4.5146 7.9058 -3.6033 -2.4446 9.1659 -13.2951 -0.7558 -4.5807 -9.4820 -15.0111 -2.9633 78.0830 2.8798 -19.4433 -22.1585 -37.2545 -84.0593 -26.5942 -6.0878 4.4963 4.5432 31.2088 14.8083 15.7218 4.0700 9.9397 0.0000 -0.0000 0.0000 4.8757 -63.5243 -18.5556 -19.0038 43.4853 -11.7046 -2.4211 -13.0234 4.3747 0.0000 -4.4436 -0.0000 
-0.3381 8.5921 0.2025 32.5109 27.7122 14.1569 0.0000 -0.0000 0.0000 6.4124 -9.1309 -9.5580 -9.6664 9.7980 2.5468 -16.0860 -25.7490 2.7431 0.0000 0.3109 0.0000 0.0000 -0.0000 0.0000 -0.8280 5.2118 -0.8338 -0.5203 10.4395 -0.0256 8.6371 0.1233 -1.5987 -93.2712 -20.9704 27.0173 -38.8971 9.6251 8.2836 34.1761 -13.2454 77.6205 18.2219 -4.3921 6.2709 -12.5307 26.4537 -16.1671 -0.6775 -10.6530 2.0333 -2.9865 -4.1174 7.4415 -2.9865 -4.1175 7.4415 -4.6109 -2.6452 9.9401 -13.8371 -0.8036 -4.6125 -10.1011 -15.0615 -2.5049 78.4834 2.8533 -19.5748 -22.4019 -36.8514 -83.6124 -26.6535 -6.2136 4.4690 4.4000 31.0080 14.5797 15.7141 4.0639 9.9332 0.0000 -0.0000 0.0000 5.1351 -64.0720 -19.2573 -19.1058 43.8158 -11.6153 -3.1200 -13.9841 4.0606 0.0000 -3.7456 0.0000 
-0.3696 8.5355 0.1897 33.8464 27.5213 14.7226 0.0000 -0.0000 0.0000 6.6331 -8.7106 -9.1832 -9.6654 9.9427 2.7018 -17.2730 -26.1356 2.7437 0.0000 0.1988 0.0000 0.0000 -0.0000 0.0000 -0.9230 5.0536 -0.8325 -0.6988 10.1263 0.0025 8.3174 0.1182 -1.3966 -93.8221 -20.7475 27.5232 -38.1840 9.8148 8.1287 33.7243 -13.5048 76.7188 18.1669 -4.4350 6.1936 -12.4274 26.2500 -15.9595 -0.7495 -10.5630 1.9787 -2.9889 -3.8253 7.0285 -2.9889 -3.8254 7.0285 -5.3941 -2.8417 10.6057 -14.5242 -0.8663 -4.6594 -10.3095 -15.3246 -2.1696 78.7126 2.8385 -19.6502 -22.8024 -36.3136 -83.0984 -26.6817 -6.4029 4.4744 4.1463 30.6077 14.1819 15.7007 4.0532 9.9219 0.0000 -0.0000 0.0000 5.3947 -64.3272 -19.9835 -19.3049 44.4137 -11.7845 -3.8747 -15.1735 3.4008 -0.0000 -3.3241 -0.0000 
-0.4004 8.4855 0.1709 35.0684 27.3119 15.3284 0.0000 -0.0000 0.0000 6.8375 -8.2961 -8.8686 -9.6725 10.0767 2.8118 -18.3888 -26.3553 2.6597 0.0000 0.0395 0.0000 0.0000 -0.0000 0.0000 -1.0176 4.9469 -0.8624 -0.8839 9.9160 -0.0258 7.9299 0.1157 -1.1783 -94.3010 -20.7322 28.0234 -37.3675 10.0342 7.9542 33.1781 -13.8006 76.0307 18.1054 -4.4856 6.1055 -12.3969 26.0648 -15.8032 -0.8561 -10.4298 1.8976 -3.0188 -3.6664 6.7892 -3.0188 -3.6665 6.7892 -5.9573 -2.9777 11.0192 -15.1080 -0.9180 -4.6687 -10.4082 -15.8854 -1.8020 78.8841 2.8277 -19.7066 -23.1822 -35.5376 -82.5753 -26.6931 -6.6246 4.4967 3.8653 30.1277 13.7329 15.6856 4.0412 9.9092 0.0000 -0.0000 0.0000 5.7406 -64.3680 -20.7168 -19.6555 45.1841 -12.2614 -4.6865 -16.1799 2.7046 -0.0000 -2.9360 -0.0000 
-0.4312 8.4410 0.1466 36.0077 27.1623 15.8233 0.0000 -0.0000 0.0000 7.0252 -7.9313 -8.5516 -9.6780 10.2405 2.9310 -19.2855 -26.4935 2.5570 0.0000 -0.1539 0.0000 0.0000 -0.0000 0.0000 -1.0917 4.8470 -0.8825 -1.0295 9.7190 -0.0335 7.5736 0.1149 -0.9854 -94.6307 -20.8080 28.5347 -36.6000 10.2428 7.7929 32.7439 -14.0972 75.5018 18.0361 -4.5494 6.0040 -12.5236 25.9763 -15.8047 -0.9383 -10.3273 1.8350 -3.0431 -3.5053 6.5804 -3.0431 -3.5052 6.5805 -6.4609 -3.2179 11.3289 -15.4618 -0.9489 -4.6448 -10.4907 -16.6214 -1.5666 79.0093 2.8198 -19.7479 -23.4902 -34.7266 -81.9507 -26.6875 -6.8585 4.5330 3.6097 29.6098 13.2834 15.6709 4.0294 9.8968 0.0000 -0.0000 0.0000 6.3408 -64.4449 -21.4190 -20.1003 46.2322 -12.9772 -5.1573 -16.4876 2.3317 0.0000 -2.4562 0.0000 
